<svg width="17" height="20" fill="none" xmlns="http://www.w3.org/2000/svg"><path d="M5.818 19.064c-2.775-.016-5.07-5.68-5.07-8.565 0-4.712 3.535-5.744 4.897-5.744.614 0 1.27.241 1.848.455.404.149.822.302 1.055.302.14 0 .467-.13.757-.245.618-.246 1.386-.552 2.281-.552h.005c.669 0 2.695.147 3.914 1.977l.285.428-.41.31c-.588.443-1.658 1.25-1.658 2.85 0 1.895 1.212 2.624 1.795 2.974.257.155.523.314.523.663 0 .228-1.818 5.118-4.457 5.118-.646 0-1.103-.194-1.506-.365-.407-.173-.759-.323-1.34-.323-.294 0-.666.14-1.06.287-.54.201-1.149.43-1.84.43h-.019zM11.866.42c.069 2.48-1.704 4.2-3.476 4.09C8.1 2.534 10.161.42 11.866.42z" fill="#6565EC"/></svg>