<svg width="41" height="49" fill="none" xmlns="http://www.w3.org/2000/svg"><path d="M25.89 48.054c1.602 0 3-1.393 3-2.991v-6.987h2.002c1.202 0 2.003-.8 2.003-1.998V16.123H8.881v19.955c0 1.199.801 1.998 2.003 1.998h2.003v6.987c0 1.598 1.396 2.992 3 2.992 1.601 0 2.998-1.394 2.998-2.992v-6.987h4.006v6.987c0 1.598 1.397 2.991 3 2.991zm12.008-11.975c1.602 0 3-1.394 3-2.992V19.113c0-1.59-1.398-2.99-3-2.99-1.603 0-3 1.4-3 2.99v13.974c0 1.598 1.397 2.992 3 2.992zm-34.019 0c1.602 0 3-1.394 3-2.992V19.113c0-1.59-1.397-2.99-3-2.99-1.602 0-3 1.4-3 2.99v13.974c.001 1.598 1.398 2.992 3 2.992zM30.492.561a.96.96 0 00-1.396 0l-2.687 2.67-.123.124c-1.593-.796-3.38-1.193-5.368-1.197h-.059c-1.988.004-3.774.401-5.367 1.197l-.124-.124-2.686-2.67a.96.96 0 00-1.397 0c-.4.4-.4.993 0 1.392l2.599 2.592a10.816 10.816 0 00-2.257 2.02A11.712 11.712 0 008.9 13.502l-.006.082c-.008.18-.012.36-.012.541h24.014c0-.18-.004-.361-.013-.54 0-.028-.004-.055-.005-.083a11.709 11.709 0 00-2.727-6.935c-.66-.78-1.42-1.463-2.257-2.02l2.599-2.593c.4-.4.4-.992 0-1.392zM15.883 10.636c-.828 0-1.5-.67-1.5-1.496 0-.827.671-1.497 1.5-1.497s1.5.67 1.5 1.497c0 .826-.671 1.496-1.5 1.496zm10.012 0c-.829 0-1.5-.67-1.5-1.496 0-.827.671-1.497 1.5-1.497.828 0 1.5.67 1.5 1.497 0 .826-.672 1.496-1.5 1.496z" fill="#000"/></svg>