<svg width="41" height="41" fill="none" xmlns="http://www.w3.org/2000/svg"><path d="M20.971.472c-.717 0-1.433.039-2.146.115a18.922 18.922 0 00-2.306.39 20.014 20.014 0 00-10.6 6.3c-7.263 8.316-6.392 20.931 1.947 28.176 7.983 6.935 20 6.474 27.425-1.054a19.907 19.907 0 005.703-13.956c0-11.03-8.965-19.97-20.023-19.97zM7.543 7.485c.105-.109.215-.213.322-.32.124-.121.248-.244.375-.361.111-.104.226-.204.34-.305.129-.114.257-.228.39-.338.115-.098.235-.192.354-.286a12.969 12.969 0 01.774-.582c.137-.098.276-.2.417-.292a18.126 18.126 0 011.207-.744 20.904 20.904 0 01.845-.454 19.474 19.474 0 01.87-.41l.475-.2c.138-.056.275-.111.415-.165.161-.06.325-.118.488-.175.14-.049.28-.098.42-.144.167-.053.335-.102.503-.15.14-.041.28-.083.422-.121.054-.014.108-.025.162-.04a16.51 16.51 0 00-4.266 6.91 22.453 22.453 0 01-4.573-1.756c.022-.023.04-.047.06-.067zm-.96 1.072a23.221 23.221 0 005.065 2.01 34.458 34.458 0 00-1.347 9.21H2.298a18.571 18.571 0 014.285-11.22zm0 23.772a18.574 18.574 0 01-4.285-11.22h8.003c.03 3.116.484 6.214 1.347 9.21a23.24 23.24 0 00-5.065 2.01zm9.572 6.122c-.134-.034-.274-.078-.413-.119a17.284 17.284 0 01-.505-.152c-.14-.045-.28-.094-.418-.142a15.997 15.997 0 01-.904-.34l-.477-.2a28.638 28.638 0 01-.874-.41 18.553 18.553 0 01-1.675-.952 22.223 22.223 0 01-.378-.247 18.583 18.583 0 01-.422-.295 13.588 13.588 0 01-.773-.585c-.118-.094-.236-.188-.351-.284-.134-.11-.263-.226-.392-.34-.114-.1-.228-.2-.339-.302-.127-.119-.25-.242-.375-.364-.107-.106-.217-.21-.322-.319-.02-.02-.038-.042-.057-.062a22.465 22.465 0 014.573-1.756 16.514 16.514 0 004.265 6.909l-.163-.04zm4.149.58c-2.856-.406-5.36-3.379-6.935-7.769a34.002 34.002 0 016.935-.814v8.582zm0-9.915c-2.476.033-4.94.326-7.354.875a33.22 33.22 0 01-1.314-8.882h8.668v8.007zm0-9.339h-8.668a33.211 33.211 0 011.314-8.882c2.413.549 4.878.842 7.354.875v8.007zm0-9.339a33.968 33.968 0 01-6.935-.814c1.575-4.39 4.079-7.363 6.935-7.768v8.582zm15.055-1.881a18.574 18.574 0 014.285 11.22H31.64a34.458 34.458 0 00-1.347-9.21 23.25 23.25 0 005.065-2.01zm-9.578-6.122c.14.034.28.078.419.119.169.049.338.098.505.152.14.045.28.094.419.143a15.944 15.944 0 01.903.34 17.367 17.367 0 01.884.385c.155.073.31.147.467.225a18.69 18.69 0 011.675.952 15.26 15.26 0 01.8.541 15.267 15.267 0 01.773.584 13.99 13.99 0 01.743.624c.114.1.228.2.339.302.127.119.25.242.375.364.107.106.217.21.322.319.02.02.038.042.058.061a22.437 22.437 0 01-4.574 1.757 16.515 16.515 0 00-4.27-6.908c.053.014.108.025.162.04zm-4.142-.579c2.855.405 5.359 3.378 6.934 7.768a34.004 34.004 0 01-6.934.814V1.856zm0 9.914a35.234 35.234 0 007.353-.875 33.22 33.22 0 011.314 8.882h-8.668V11.77zm0 9.339h8.668a33.215 33.215 0 01-1.315 8.882 35.24 35.24 0 00-7.354-.875V21.11zm0 17.921v-8.582a33.92 33.92 0 016.934.814c-1.575 4.39-4.079 7.363-6.934 7.768zm12.76-5.63c-.105.11-.214.214-.322.32-.124.122-.248.245-.375.363-.111.103-.225.2-.339.303-.13.115-.258.23-.39.34-.117.097-.236.19-.355.285a12.668 12.668 0 01-.774.582c-.137.099-.276.2-.417.292a16.696 16.696 0 01-.814.515c-.133.078-.26.154-.392.229a19.979 19.979 0 01-1.306.677 15.41 15.41 0 01-.41.186l-.474.2c-.139.056-.276.112-.415.164-.163.062-.326.12-.49.177-.14.048-.278.097-.419.142-.167.054-.334.104-.504.152-.14.041-.28.083-.42.12l-.163.04a16.51 16.51 0 004.266-6.909 22.45 22.45 0 014.573 1.756c-.022.024-.04.047-.06.067zm.96-1.07a23.228 23.228 0 00-5.065-2.011 34.462 34.462 0 001.347-9.21h8.003a18.57 18.57 0 01-4.285 11.22z" fill="#000"/></svg>