<svg width="41" height="40" fill="none" xmlns="http://www.w3.org/2000/svg"><path d="M38.663 29.622a.94.94 0 00-.82-.154l-3.25.861a1.232 1.232 0 00-.886 1.164v4.079a2.229 2.229 0 00-.863-.172c-1.122 0-2.034.814-2.034 1.815s.913 1.816 2.034 1.816c1.123 0 2.035-.815 2.035-1.816v-3.644l3.265-.866c.505-.133.885-.634.885-1.164v-1.15a.956.956 0 00-.366-.77zm-5.819 8.24c-.467 0-.863-.297-.863-.647 0-.35.396-.647.863-.647.468 0 .864.297.864.647 0 .35-.396.647-.864.647zm4.986-6.283l-2.95.783-.001-.863a.1.1 0 01.028-.044l2.95-.782v.862a.1.1 0 01-.027.044zm1.48-20.235a.587.587 0 00-1.045.53c2.084 4.083 2.084 10.726 0 14.808a.584.584 0 00.522.85.585.585 0 00.522-.32c1.087-2.129 1.685-4.946 1.685-7.934 0-2.987-.598-5.805-1.685-7.934z" fill="#000"/><path d="M36.66 23.819a.584.584 0 00.788-.256c1.226-2.403 1.226-6.168 0-8.572a.587.587 0 00-1.044.53c1.056 2.072 1.056 5.441 0 7.512a.584.584 0 00.256.786z" fill="#000"/><path d="M31.223 9.076a14.386 14.386 0 00-10.229-4.227 14.39 14.39 0 00-10.23 4.227c-5.638 5.625-5.638 14.78 0 20.406a14.507 14.507 0 0010.22 4.225c2.85 0 5.658-.839 8.027-2.416a.584.584 0 00.163-.811.587.587 0 00-.813-.162c-5.246 3.493-12.299 2.794-16.768-1.663-5.182-5.17-5.182-13.583 0-18.753a13.226 13.226 0 019.4-3.884c3.552 0 6.89 1.38 9.4 3.884 5.184 5.17 5.184 13.583 0 18.753a.583.583 0 000 .827c.23.228.6.228.83 0 5.64-5.626 5.64-14.78 0-20.406z" fill="#000"/><path d="M13.935 12.054a.583.583 0 00.01-.826.587.587 0 00-.828-.01 11.154 11.154 0 00-3.408 8.06c0 6.206 5.063 11.256 11.285 11.256 6.223 0 11.286-5.05 11.286-11.257 0-6.206-5.063-11.256-11.286-11.256a11.3 11.3 0 00-5.653 1.513.584.584 0 10.588 1.011 10.127 10.127 0 015.065-1.355c5.577 0 10.114 4.525 10.114 10.088 0 5.562-4.537 10.087-10.114 10.087-5.576 0-10.113-4.525-10.113-10.087a9.996 9.996 0 013.054-7.224zM3.947 4.301l1.43.723L6.1 6.45c.163.32.39.48.672.48h.002c.195 0 .47-.084.671-.481l.724-1.425L9.6 4.3c.321-.162.484-.387.484-.67 0-.285-.163-.51-.483-.672l-1.43-.723L7.446.812c-.162-.32-.388-.483-.672-.484h-.001c-.195 0-.47.084-.673.481l-.724 1.428-1.428.722c-.4.2-.484.475-.484.67 0 .282.161.509.483.672zm2.13-1.108a.585.585 0 00.258-.258l.438-.863.439.863a.585.585 0 00.258.258l.865.437-.866.438a.585.585 0 00-.257.257l-.439.863-.438-.863a.585.585 0 00-.258-.257l-.865-.438.865-.437zm25.736 2.229h.583a.585.585 0 100-1.168h-.584a.585.585 0 100 1.168zm3.195 0h.583a.585.585 0 100-1.168h-.583a.585.585 0 100 1.168zm-1.307 1.884a.585.585 0 00.586-.584v-.581a.585.585 0 00-1.172 0v.581c0 .323.263.584.586.584zm0-3.187a.585.585 0 00.586-.585v-.581a.585.585 0 00-1.172 0v.581c0 .323.263.585.586.585zM10.176 33.134h-.583a.585.585 0 100 1.168h.583a.585.585 0 100-1.168zm-3.196 0h-.583a.585.585 0 100 1.168h.584a.585.585 0 100-1.168zm1.307-1.886a.585.585 0 00-.586.584v.583a.585.585 0 001.172 0v-.583a.585.585 0 00-.586-.584zm0 3.19a.585.585 0 00-.586.584v.58a.585.585 0 001.172 0v-.58a.585.585 0 00-.586-.584z" fill="#000"/><path d="M23.413 18.379c-1.161.214-2.071 1.123-2.071 2.07 0 .434.187.828.526 1.11.33.274.779.42 1.272.42.158 0 .32-.015.486-.046 1.16-.214 2.069-1.123 2.069-2.07V14.81a.968.968 0 00-.344-.748 1.032 1.032 0 00-.844-.214l-5.36.948c-.553.097-.986.597-.986 1.14v4.923a2.43 2.43 0 00-1.111-.04c-1.162.214-2.072 1.123-2.072 2.07 0 .434.187.828.526 1.11.331.275.78.42 1.272.42.158 0 .321-.015.486-.046 1.162-.213 2.071-1.123 2.071-2.07v-4.257l5.19-.918v1.291a2.427 2.427 0 00-1.11-.04zm0 2.405c-.39.072-.667-.017-.796-.124a.255.255 0 01-.103-.21c0-.339.475-.805 1.112-.922a1.5 1.5 0 01.271-.026c.247 0 .426.07.522.15.072.06.104.125.104.211 0 .338-.475.804-1.11.921zm-6.364 2.44c-.39.072-.667-.017-.795-.124a.255.255 0 01-.104-.21c0-.339.476-.804 1.112-.922a1.52 1.52 0 01.273-.026c.247 0 .427.07.523.15.072.06.103.125.103.211 0 .338-.475.804-1.112.921zm2.284-6.365v-.899a.052.052 0 01.016-.012l5.174-.916v.909l-5.19.918zm-15.61-4.985a.587.587 0 00-1.044-.53C1.592 13.474.994 16.291.994 19.278c0 2.988.599 5.806 1.685 7.934a.586.586 0 001.044-.53c-2.083-4.082-2.083-10.725 0-14.807z" fill="#000"/><path d="M5.326 14.735a.587.587 0 00-.788.257c-1.224 2.403-1.224 6.168 0 8.57a.586.586 0 001.045-.529c-1.055-2.07-1.055-5.44 0-7.512a.584.584 0 00-.257-.786z" fill="#000"/></svg>