<svg width="41" height="26" fill="none" xmlns="http://www.w3.org/2000/svg"><path d="M35.437 19.393v1.663a3.33 3.33 0 01-3.334 3.326H4.593a3.33 3.33 0 01-3.335-3.326V5.258a3.33 3.33 0 013.334-3.326h27.51a3.33 3.33 0 013.335 3.326v1.663h1.668c.92 0 1.667.745 1.667 1.663v9.146c0 .918-.747 1.663-1.667 1.663h-1.668z" fill="#FAFAFA"/><path d="M6.26 20.64a1.25 1.25 0 01-1.25-1.247V6.921a1.25 1.25 0 012.501 0v12.472a1.25 1.25 0 01-1.25 1.247zm5.002 0a1.25 1.25 0 01-1.25-1.247V6.921a1.25 1.25 0 012.5 0v12.472a1.25 1.25 0 01-1.25 1.247zm5.002 0a1.25 1.25 0 01-1.25-1.247V6.921a1.25 1.25 0 012.5 0v12.472a1.25 1.25 0 01-1.25 1.247zm5.002 0a1.25 1.25 0 01-1.25-1.247V6.921a1.25 1.25 0 012.501 0v12.472a1.25 1.25 0 01-1.25 1.247zm5.002 0a1.25 1.25 0 01-1.25-1.247V6.921a1.25 1.25 0 012.501 0v12.472a1.25 1.25 0 01-1.25 1.247zm5.002 0a1.25 1.25 0 01-1.25-1.247V6.921a1.25 1.25 0 012.501 0v12.472a1.25 1.25 0 01-1.251 1.247z" fill="#000"/><path d="M32.103 25.63H4.593a4.584 4.584 0 01-4.585-4.574V5.258C.008 2.735 2.065.685 4.593.685h27.51c2.528 0 4.585 2.05 4.585 4.573v.416h.402a2.917 2.917 0 012.918 2.91v9.146a2.917 2.917 0 01-2.918 2.91h-.402v.416c0 2.523-2.057 4.573-4.585 4.573zM4.593 3.18a2.084 2.084 0 00-2.084 2.078v15.798c0 1.146.935 2.08 2.084 2.08h27.51a2.084 2.084 0 002.084-2.08v-1.663c0-.688.56-1.247 1.25-1.247h1.653c.23 0 .417-.186.417-.416V8.584a.416.416 0 00-.417-.416h-1.652a1.25 1.25 0 01-1.25-1.247V5.258a2.084 2.084 0 00-2.085-2.079H4.593z" fill="#000"/></svg>