<svg width="41" height="41" fill="none" xmlns="http://www.w3.org/2000/svg"><path d="M21.875 40.366H18.14a2.494 2.494 0 01-2.476-2.194l-.399-3.118a15.78 15.78 0 01-2.29-.946l-2.49 1.93c-1.01.78-2.432.69-3.308-.21L4.553 33.21c-.895-.866-.985-2.284-.204-3.29l1.935-2.485a15.324 15.324 0 01-.948-2.284l-3.133-.397A2.498 2.498 0 01.008 22.28v-3.724c0-1.258.945-2.32 2.2-2.47l3.126-.397c.259-.793.577-1.558.949-2.284L4.349 10.92c-.783-1.007-.691-2.427.212-3.301l2.625-2.618c.868-.893 2.292-.981 3.299-.203l2.49 1.932a15.618 15.618 0 012.291-.946l.399-3.125A2.494 2.494 0 0118.14.47h3.734c1.261 0 2.326.943 2.476 2.194l.399 3.119c.796.258 1.563.575 2.291.946l2.49-1.93c1.012-.78 2.432-.69 3.309.211l2.624 2.618c.895.866.986 2.284.204 3.29l-1.935 2.485c.373.727.692 1.491.948 2.284l3.134.398a2.495 2.495 0 012.193 2.471v3.724c0 1.258-.945 2.32-2.2 2.47l-3.127.398a15.68 15.68 0 01-.948 2.284l1.935 2.483a2.471 2.471 0 01-.212 3.3l-2.625 2.618c-.868.893-2.292.984-3.298.203l-2.492-1.93c-.728.372-1.495.69-2.29.946l-.398 3.125a2.497 2.497 0 01-2.479 2.19zm-8.984-8.079c.139 0 .28.035.407.105.918.512 1.913.924 2.957 1.224a.83.83 0 01.596.693l.467 3.657c.05.417.412.738.823.738h3.734c.411 0 .773-.32.821-.73l.468-3.664a.83.83 0 01.597-.693 13.999 13.999 0 002.957-1.223.833.833 0 01.916.07l2.917 2.26a.821.821 0 001.092-.056l2.642-2.635a.82.82 0 00.065-1.097l-2.267-2.91a.828.828 0 01-.07-.913c.513-.916.927-1.909 1.227-2.95a.831.831 0 01.694-.595l3.667-.465a.844.844 0 00.74-.823v-3.724a.838.838 0 00-.732-.82l-3.673-.466a.831.831 0 01-.695-.595c-.3-1.04-.713-2.033-1.227-2.95a.825.825 0 01.07-.914l2.267-2.909c.262-.335.239-.804-.055-1.087L31.654 6.18a.822.822 0 00-1.1-.064l-2.916 2.26a.837.837 0 01-.919.07 13.951 13.951 0 00-2.956-1.223.83.83 0 01-.597-.694L22.7 2.872a.845.845 0 00-.825-.74H18.14a.838.838 0 00-.821.73l-.469 3.664a.834.834 0 01-.596.695c-1.047.3-2.042.711-2.957 1.222a.836.836 0 01-.918-.068L9.463 6.114a.819.819 0 00-1.09.055L5.73 8.805a.82.82 0 00-.065 1.097l2.267 2.91a.828.828 0 01.07.914 13.846 13.846 0 00-1.227 2.949.831.831 0 01-.695.595l-3.667.465a.841.841 0 00-.74.822v3.723c0 .41.322.771.732.82l3.673.467a.83.83 0 01.695.595c.3 1.04.714 2.033 1.227 2.949a.825.825 0 01-.07.914l-2.267 2.91c-.261.335-.238.804.055 1.086l2.642 2.635a.826.826 0 001.1.065l2.917-2.26a.86.86 0 01.513-.174z" fill="#000"/><path d="M20.008 28.73c-4.595 0-8.333-3.729-8.333-8.312 0-4.583 3.738-8.312 8.333-8.312 4.595 0 8.334 3.73 8.334 8.312 0 4.583-3.739 8.312-8.334 8.312zm0-14.961c-3.677 0-6.666 2.982-6.666 6.65 0 3.666 2.99 6.649 6.666 6.649 3.677 0 6.667-2.983 6.667-6.65 0-3.667-2.99-6.65-6.667-6.65z" fill="#000"/></svg>