<svg width="437" height="437" fill="none" xmlns="http://www.w3.org/2000/svg"><g filter="url(#filter0_d_93_66)"><g opacity=".5" filter="url(#filter1_di_93_66)"><circle cx="218.071" cy="214.119" r="14.894" fill="#CFCFCF"/></g><g filter="url(#filter2_f_93_66)"><mask id="a" fill="#fff"><path d="M236.12 214.119c0 9.968-8.081 18.048-18.049 18.048s-18.049-8.08-18.049-18.048c0-9.968 8.081-18.049 18.049-18.049s18.049 8.081 18.049 18.049zm-32.466 0c0 7.962 6.455 14.416 14.417 14.416s14.417-6.454 14.417-14.416c0-7.962-6.455-14.417-14.417-14.417s-14.417 6.455-14.417 14.417z"/></mask><path d="M236.12 214.119c0 9.968-8.081 18.048-18.049 18.048s-18.049-8.08-18.049-18.048c0-9.968 8.081-18.049 18.049-18.049s18.049 8.081 18.049 18.049zm-32.466 0c0 7.962 6.455 14.416 14.417 14.416s14.417-6.454 14.417-14.416c0-7.962-6.455-14.417-14.417-14.417s-14.417 6.455-14.417 14.417z" fill="#EEE"/><path d="M236.12 214.119c0 9.968-8.081 18.048-18.049 18.048s-18.049-8.08-18.049-18.048c0-9.968 8.081-18.049 18.049-18.049s18.049 8.081 18.049 18.049zm-32.466 0c0 7.962 6.455 14.416 14.417 14.416s14.417-6.454 14.417-14.416c0-7.962-6.455-14.417-14.417-14.417s-14.417 6.455-14.417 14.417z" stroke="#CDCDCD" stroke-width="2" mask="url(#a)"/></g><path d="M225.131 214.119l-10.589 6.113v-12.227l10.589 6.114z" fill="#1617DB"/></g><defs><filter id="filter0_d_93_66" x=".022" y=".07" width="436.098" height="436.097" filterUnits="userSpaceOnUse" color-interpolation-filters="sRGB"><feFlood flood-opacity="0" result="BackgroundImageFix"/><feColorMatrix in="SourceAlpha" values="0 0 0 0 0 0 0 0 0 0 0 0 0 0 0 0 0 0 127 0" result="hardAlpha"/><feOffset dy="4"/><feGaussianBlur stdDeviation="100"/><feColorMatrix values="0 0 0 0 0 0 0 0 0 0 0 0 0 0 0 0 0 0 0.2 0"/><feBlend in2="BackgroundImageFix" result="effect1_dropShadow_93_66"/><feBlend in="SourceGraphic" in2="effect1_dropShadow_93_66" result="shape"/></filter><filter id="filter1_di_93_66" x="199.177" y="199.224" width="37.789" height="37.789" filterUnits="userSpaceOnUse" color-interpolation-filters="sRGB"><feFlood flood-opacity="0" result="BackgroundImageFix"/><feColorMatrix in="SourceAlpha" values="0 0 0 0 0 0 0 0 0 0 0 0 0 0 0 0 0 0 127 0" result="hardAlpha"/><feOffset dy="4"/><feGaussianBlur stdDeviation="2"/><feColorMatrix values="0 0 0 0 0 0 0 0 0 0 0 0 0 0 0 0 0 0 0.14 0"/><feBlend in2="BackgroundImageFix" result="effect1_dropShadow_93_66"/><feBlend in="SourceGraphic" in2="effect1_dropShadow_93_66" result="shape"/><feColorMatrix in="SourceAlpha" values="0 0 0 0 0 0 0 0 0 0 0 0 0 0 0 0 0 0 127 0" result="hardAlpha"/><feOffset dy="4"/><feGaussianBlur stdDeviation="2"/><feComposite in2="hardAlpha" operator="arithmetic" k2="-1" k3="1"/><feColorMatrix values="0 0 0 0 0 0 0 0 0 0 0 0 0 0 0 0 0 0 0.1 0"/><feBlend in2="shape" result="effect2_innerShadow_93_66"/></filter><filter id="filter2_f_93_66" x="198.022" y="194.07" width="40.098" height="40.097" filterUnits="userSpaceOnUse" color-interpolation-filters="sRGB"><feFlood flood-opacity="0" result="BackgroundImageFix"/><feBlend in="SourceGraphic" in2="BackgroundImageFix" result="shape"/><feGaussianBlur stdDeviation="1" result="effect1_foregroundBlur_93_66"/></filter></defs></svg>